<?xml version="1.0" encoding="UTF-8"?>
<svg xmlns="http://www.w3.org/2000/svg" width="40" height="40" viewBox="0 0 40 40" fill="none">
  <path d="M10 15C7.24 15 5 12.76 5 10C5 7.24 7.24 5 10 5C12.76 5 15 7.24 15 10C15 12.76 12.76 15 10 15ZM10 7C8.34 7 7 8.34 7 10C7 11.66 8.34 13 10 13C11.66 13 13 11.66 13 10C13 8.34 11.66 7 10 7Z" fill="#3670C7"/>
  <path d="M13 35C12.74 35 12.48 34.9 12.29 34.71C11.9 34.32 11.9 33.68 12.29 33.29L15.17 30.41C15.56 30.02 16.19 30.02 16.58 30.41C16.97 30.8 16.97 31.43 16.58 31.82L13.7 34.7C13.52 34.9 13.26 35 13 35Z" fill="#3670C7"/>
  <path d="M25 23C24.74 23 24.48 22.9 24.29 22.71C23.9 22.32 23.9 21.69 24.29 21.3L27.17 18.42C27.56 18.03 28.19 18.03 28.58 18.42C28.97 18.81 28.97 19.44 28.58 19.83L25.7 22.71C25.52 22.9 25.26 23 25 23Z" fill="#3670C7"/>
  <path d="M29 35C28.74 35 28.48 34.9 28.29 34.71L25.41 31.83C25.02 31.44 25.02 30.81 25.41 30.42C25.8 30.03 26.43 30.03 26.82 30.42L29.7 33.3C30.09 33.69 30.09 34.32 29.7 34.71C29.52 34.9 29.26 35 29 35Z" fill="#3670C7"/>
  <path d="M17 23C16.74 23 16.48 22.9 16.29 22.71L13.41 19.83C13.02 19.44 13.02 18.81 13.41 18.42C13.8 18.03 14.43 18.03 14.82 18.42L17.7 21.3C18.09 21.69 18.09 22.32 17.7 22.71C17.52 22.9 17.26 23 17 23Z" fill="#3670C7"/>
  <path d="M21 31C18.24 31 16 28.76 16 26C16 23.24 18.24 21 21 21C23.76 21 26 23.24 26 26C26 28.76 23.76 31 21 31ZM21 23C19.34 23 18 24.34 18 26C18 27.66 19.34 29 21 29C22.66 29 24 27.66 24 26C24 24.34 22.66 23 21 23Z" fill="#3670C7"/>
  <path d="M30 15C27.24 15 25 12.76 25 10C25 7.24 27.24 5 30 5C32.76 5 35 7.24 35 10C35 12.76 32.76 15 30 15ZM30 7C28.34 7 27 8.34 27 10C27 11.66 28.34 13 30 13C31.66 13 33 11.66 33 10C33 8.34 31.66 7 30 7Z" fill="#3670C7"/>
  <path d="M24.9 16H15.1C13.94 16 13 15.06 13 13.9V13.1C13 11.94 13.94 11 15.1 11H24.9C26.06 11 27 11.94 27 13.1V13.9C27 15.06 26.06 16 24.9 16ZM15.1 13C15.04 13 15 13.04 15 13.1V13.9C15 13.96 15.04 14 15.1 14H24.9C24.96 14 25 13.96 25 13.9V13.1C25 13.04 24.96 13 24.9 13H15.1Z" fill="#3670C7"/>
</svg>
