<?xml version="1.0" encoding="UTF-8"?>
<svg xmlns="http://www.w3.org/2000/svg" width="40" height="40" viewBox="0 0 40 40" fill="none">
  <path d="M20 34C14.4772 34 10 29.5228 10 24C10 18.4772 14.4772 14 20 14C25.5228 14 30 18.4772 30 24C30 29.5228 25.5228 34 20 34ZM20 16C15.5817 16 12 19.5817 12 24C12 28.4183 15.5817 32 20 32C24.4183 32 28 28.4183 28 24C28 19.5817 24.4183 16 20 16Z" fill="#3670C7"/>
  <path d="M20 26C18.8954 26 18 25.1046 18 24C18 22.8954 18.8954 22 20 22C21.1046 22 22 22.8954 22 24C22 25.1046 21.1046 26 20 26Z" fill="#3670C7"/>
  <path d="M20 15C19.4477 15 19 14.5523 19 14V7C19 6.44772 19.4477 6 20 6C20.5523 6 21 6.44772 21 7V14C21 14.5523 20.5523 15 20 15Z" fill="#3670C7"/>
  <path d="M33 15H27C26.4477 15 26 14.5523 26 14C26 13.4477 26.4477 13 27 13H33C33.5523 13 34 13.4477 34 14C34 14.5523 33.5523 15 33 15Z" fill="#3670C7"/>
  <path d="M13 15H7C6.44772 15 6 14.5523 6 14C6 13.4477 6.44772 13 7 13H13C13.5523 13 14 13.4477 14 14C14 14.5523 13.5523 15 13 15Z" fill="#3670C7"/>
  <path d="M29.364 10.636C29.1687 10.636 28.9734 10.5607 28.8284 10.4142C28.5355 10.1213 28.5355 9.64645 28.8284 9.35355L31.3284 6.85355C31.6213 6.56066 32.0962 6.56066 32.3891 6.85355C32.682 7.14645 32.682 7.62132 32.3891 7.91421L29.8891 10.4142C29.7441 10.5607 29.5593 10.636 29.364 10.636Z" fill="#3670C7"/>
  <path d="M7.63604 10.636C7.44076 10.636 7.24549 10.5607 7.10046 10.4142L4.60046 7.91421C4.30757 7.62132 4.30757 7.14645 4.60046 6.85355C4.89336 6.56066 5.36823 6.56066 5.66113 6.85355L8.16113 9.35355C8.45402 9.64645 8.45402 10.1213 8.16113 10.4142C8.01659 10.5607 7.83132 10.636 7.63604 10.636Z" fill="#3670C7"/>
</svg>
