<?xml version="1.0" encoding="UTF-8"?>
<svg xmlns="http://www.w3.org/2000/svg" width="40" height="40" viewBox="0 0 40 40" fill="none">
  <path d="M32 28H8C6.9 28 6 27.1 6 26V10C6 8.9 6.9 8 8 8H32C33.1 8 34 8.9 34 10V26C34 27.1 33.1 28 32 28ZM8 10V26H32V10H8Z" fill="#3670C7"/>
  <path d="M18 32H22V28H18V32Z" fill="#3670C7"/>
  <path d="M15 32H25C25.55 32 26 32.45 26 33C26 33.55 25.55 34 25 34H15C14.45 34 14 33.55 14 33C14 32.45 14.45 32 15 32Z" fill="#3670C7"/>
  <path d="M13 22H16V14H13C12.45 14 12 14.45 12 15V21C12 21.55 12.45 22 13 22Z" fill="#3670C7"/>
  <path d="M24 22H27C27.55 22 28 21.55 28 21V15C28 14.45 27.55 14 27 14H24V22Z" fill="#3670C7"/>
  <path d="M17 14H23V22H17V14Z" fill="#3670C7"/>
</svg>
