<?xml version="1.0" encoding="UTF-8"?>
<svg xmlns="http://www.w3.org/2000/svg" width="40" height="40" viewBox="0 0 40 40" fill="none">
  <path d="M30.6093 18.627L21.3726 9.39033C20.3607 8.37845 18.6163 8.37845 17.6044 9.39033L8.36774 18.627C7.35585 19.6389 7.35585 21.3833 8.36774 22.3952L17.6044 31.6319C18.6163 32.6438 20.3607 32.6438 21.3726 31.6319L30.6093 22.3952C31.6211 21.3833 31.6211 19.6389 30.6093 18.627ZM28.9951 20.7811L19.7585 30.0177C19.4558 30.3204 18.5212 30.3204 18.2185 30.0177L8.98186 20.7811C8.67911 20.4783 8.67911 19.5438 8.98186 19.2411L18.2185 10.0044C18.5212 9.7017 19.4558 9.7017 19.7585 10.0044L28.9951 19.2411C29.2979 19.5438 29.2979 20.4783 28.9951 20.7811Z" fill="#3670C7"/>
  <path d="M14.2309 21.6543C13.8268 21.2501 13.8268 20.5936 14.2309 20.1895C14.6351 19.7853 15.2915 19.7853 15.6957 20.1895L25.7692 30.263C26.1733 30.6672 26.1733 31.3236 25.7692 31.7278C25.365 32.132 24.7086 32.132 24.3044 31.7278L14.2309 21.6543Z" fill="#3670C7"/>
  <path d="M24.3044 9.34011C24.7086 8.93592 25.365 8.93592 25.7692 9.34011C26.1733 9.7443 26.1733 10.4007 25.7692 10.8049L15.6957 20.8784C15.2915 21.2826 14.6351 21.2826 14.2309 20.8784C13.8268 20.4742 13.8268 19.8178 14.2309 19.4136L24.3044 9.34011Z" fill="#3670C7"/>
  <path d="M19.5 15C20.3284 15 21 15.6716 21 16.5C21 17.3284 20.3284 18 19.5 18C18.6716 18 18 17.3284 18 16.5C18 15.6716 18.6716 15 19.5 15Z" fill="#3670C7"/>
  <path d="M19.5 23C20.3284 23 21 23.6716 21 24.5C21 25.3284 20.3284 26 19.5 26C18.6716 26 18 25.3284 18 24.5C18 23.6716 18.6716 23 19.5 23Z" fill="#3670C7"/>
</svg>
