<?xml version="1.0" encoding="UTF-8"?>
<svg xmlns="http://www.w3.org/2000/svg" width="40" height="40" viewBox="0 0 40 40" fill="none">
  <path d="M20 10C23.866 10 27 13.134 27 17C27 20.866 23.866 24 20 24C16.134 24 13 20.866 13 17C13 13.134 16.134 10 20 10ZM20 12C17.2386 12 15 14.2386 15 17C15 19.7614 17.2386 22 20 22C22.7614 22 25 19.7614 25 17C25 14.2386 22.7614 12 20 12Z" fill="#3670C7"/>
  <path d="M20 4C25.1826 4 29.9868 7.24 32.0711 12H34.1716C31.9654 6.08 26.5099 2 20 2C13.4901 2 8.03458 6.08 5.82843 12H7.92893C10.0132 7.24 14.8174 4 20 4Z" fill="#3670C7"/>
  <path d="M7.92893 22C10.0132 26.76 14.8174 30 20 30C25.1826 30 29.9868 26.76 32.0711 22H34.1716C31.9654 27.92 26.5099 32 20 32C13.4901 32 8.03458 27.92 5.82843 22H7.92893Z" fill="#3670C7"/>
  <path d="M31 17C31 17.552 30.5523 18 30 18H28C27.4477 18 27 17.552 27 17C27 16.448 27.4477 16 28 16H30C30.5523 16 31 16.448 31 17Z" fill="#3670C7"/>
  <path d="M13 17C13 17.552 12.5523 18 12 18H10C9.44772 18 9 17.552 9 17C9 16.448 9.44772 16 10 16H12C12.5523 16 13 16.448 13 17Z" fill="#3670C7"/>
  <path d="M20 5C20.5523 5 21 5.44772 21 6V8C21 8.55228 20.5523 9 20 9C19.4477 9 19 8.55228 19 8V6C19 5.44772 19.4477 5 20 5Z" fill="#3670C7"/>
  <path d="M20 25C20.5523 25 21 25.4477 21 26V28C21 28.5523 20.5523 29 20 29C19.4477 29 19 28.5523 19 28V26C19 25.4477 19.4477 25 20 25Z" fill="#3670C7"/>
</svg>
