<?xml version="1.0" encoding="UTF-8"?>
<svg xmlns="http://www.w3.org/2000/svg" width="40" height="40" viewBox="0 0 40 40" fill="none">
  <path d="M7 13H33C33.55 13 34 12.55 34 12C34 11.45 33.55 11 33 11H7C6.45 11 6 11.45 6 12C6 12.55 6.45 13 7 13Z" fill="#3670C7"/>
  <path d="M7 19H22C22.55 19 23 18.55 23 18C23 17.45 22.55 17 22 17H7C6.45 17 6 17.45 6 18C6 18.55 6.45 19 7 19Z" fill="#3670C7"/>
  <path d="M17 25H7C6.45 25 6 24.55 6 24C6 23.45 6.45 23 7 23H17C17.55 23 18 23.45 18 24C18 24.55 17.55 25 17 25Z" fill="#3670C7"/>
  <path d="M28 17H25V14C25 13.45 24.55 13 24 13C23.45 13 23 13.45 23 14V17H20C19.45 17 19 17.45 19 18C19 18.55 19.45 19 20 19H23V22C23 22.55 23.45 23 24 23C24.55 23 25 22.55 25 22V19H28C28.55 19 29 18.55 29 18C29 17.45 28.55 17 28 17Z" fill="#3670C7"/>
  <path d="M30 25H27V22C27 21.45 26.55 21 26 21C25.45 21 25 21.45 25 22V25H22C21.45 25 21 25.45 21 26C21 26.55 21.45 27 22 27H25V30C25 30.55 25.45 31 26 31C26.55 31 27 30.55 27 30V27H30C30.55 27 31 26.55 31 26C31 25.45 30.55 25 30 25Z" fill="#3670C7"/>
  <path d="M34 29H13C12.45 29 12 29.45 12 30C12 30.55 12.45 31 13 31H34C34.55 31 35 30.55 35 30C35 29.45 34.55 29 34 29Z" fill="#3670C7"/>
</svg>
